<svg width="185" height="53" viewBox="0 0 185 53" fill="none" xmlns="http://www.w3.org/2000/svg">
<path d="M0.84 0.159996H23.24V7.904H12.296V20.96H21.832V28.96H12.296V52H0.84V0.159996Z" fill="#4B6587"/>
<path d="M40.046 52.64C36.0353 52.64 32.8993 51.552 30.638 49.376C28.3767 47.2 27.246 44.1707 27.246 40.288V26.72C27.246 22.7947 28.3553 19.7653 30.574 17.632C32.8353 15.456 35.9927 14.368 40.046 14.368C44.0567 14.368 47.1287 15.3067 49.262 17.184C51.438 19.0613 52.526 21.8347 52.526 25.504V29.408H42.478V25.184C42.478 23.776 42.2647 22.816 41.838 22.304C41.454 21.7493 40.8567 21.472 40.046 21.472C39.2353 21.472 38.638 21.8133 38.254 22.496C37.9127 23.136 37.742 24.2453 37.742 25.824V41.184C37.742 42.7627 37.934 43.872 38.318 44.512C38.702 45.152 39.2993 45.472 40.11 45.472C40.9207 45.472 41.518 45.1947 41.902 44.64C42.286 44.0853 42.478 43.1467 42.478 41.824V36.896H52.526V41.376C52.526 45.0453 51.438 47.84 49.262 49.76C47.086 51.68 44.014 52.64 40.046 52.64ZM70.1115 52.64C66.0582 52.64 62.8795 51.616 60.5755 49.568C58.3142 47.52 57.1835 44.512 57.1835 40.544V26.464C57.1835 22.496 58.3142 19.488 60.5755 17.44C62.8795 15.392 66.0582 14.368 70.1115 14.368C74.1648 14.368 77.3435 15.4133 79.6475 17.504C81.9515 19.552 83.1035 22.5387 83.1035 26.464V40.544C83.1035 44.4693 81.9515 47.4773 79.6475 49.568C77.3435 51.616 74.1648 52.64 70.1115 52.64ZM70.1755 45.728C71.1568 45.728 71.8395 45.3653 72.2235 44.64C72.6075 43.872 72.7995 42.7413 72.7995 41.248V25.76C72.7995 24.2667 72.6075 23.1573 72.2235 22.432C71.8395 21.664 71.1568 21.28 70.1755 21.28C69.1942 21.28 68.4902 21.664 68.0635 22.432C67.6795 23.2 67.4875 24.3093 67.4875 25.76V41.248C67.4875 42.7413 67.6795 43.872 68.0635 44.64C68.4902 45.3653 69.1942 45.728 70.1755 45.728Z" fill="#8F6FA0"/>
<path d="M89.337 0.159996H99.705V52H89.337V0.159996ZM118.612 52.64C114.558 52.64 111.38 51.616 109.076 49.568C106.814 47.52 105.684 44.512 105.684 40.544V26.464C105.684 22.496 106.814 19.488 109.076 17.44C111.38 15.392 114.558 14.368 118.612 14.368C122.665 14.368 125.844 15.4133 128.148 17.504C130.452 19.552 131.604 22.5387 131.604 26.464V40.544C131.604 44.4693 130.452 47.4773 128.148 49.568C125.844 51.616 122.665 52.64 118.612 52.64ZM118.676 45.728C119.657 45.728 120.34 45.3653 120.724 44.64C121.108 43.872 121.3 42.7413 121.3 41.248V25.76C121.3 24.2667 121.108 23.1573 120.724 22.432C120.34 21.664 119.657 21.28 118.676 21.28C117.694 21.28 116.99 21.664 116.564 22.432C116.18 23.2 115.988 24.3093 115.988 25.76V41.248C115.988 42.7413 116.18 43.872 116.564 44.64C116.99 45.3653 117.694 45.728 118.676 45.728ZM137.517 15.008H147.949V21.152C149.229 18.8907 150.466 17.2267 151.661 16.16C152.856 15.0933 154.264 14.56 155.885 14.56C156.482 14.56 157.016 14.624 157.485 14.752V25.12C156.205 24.608 155.074 24.352 154.093 24.352C151.832 24.352 149.784 25.5467 147.949 27.936V52H137.517V15.008ZM173.281 52.64C169.996 52.64 167.265 51.9147 165.089 50.464C162.956 48.9707 161.228 46.6027 159.905 43.36L167.009 40.224C167.692 41.9307 168.481 43.2533 169.377 44.192C170.316 45.1307 171.34 45.6 172.449 45.6C174.07 45.6 174.881 44.96 174.881 43.68C174.881 42.7413 174.561 41.9093 173.921 41.184C173.281 40.416 171.894 39.1573 169.761 37.408L167.073 35.168C164.854 33.2907 163.233 31.584 162.209 30.048C161.228 28.512 160.737 26.6773 160.737 24.544C160.737 22.5813 161.249 20.832 162.273 19.296C163.34 17.76 164.748 16.5653 166.497 15.712C168.246 14.816 170.124 14.368 172.129 14.368C175.158 14.368 177.676 15.2 179.681 16.864C181.729 18.4853 183.18 20.832 184.033 23.904L177.313 26.976C176.886 25.6107 176.225 24.3947 175.329 23.328C174.433 22.2187 173.452 21.664 172.385 21.664C171.702 21.664 171.148 21.856 170.721 22.24C170.337 22.624 170.145 23.136 170.145 23.776C170.145 24.544 170.55 25.376 171.361 26.272C172.214 27.168 173.537 28.3413 175.329 29.792L177.953 32.096C180.086 33.888 181.729 35.5733 182.881 37.152C184.033 38.688 184.609 40.5013 184.609 42.592C184.609 44.6827 184.076 46.496 183.009 48.032C181.985 49.5253 180.598 50.6773 178.849 51.488C177.142 52.256 175.286 52.64 173.281 52.64Z" fill="#C0739C"/>
</svg>
